{
    "accessors" : [
        {
            "bufferView" : 0,
            "componentType" : 5123,
            "count" : 480,
            "max" : [
                260
            ],
            "min" : [
                0
            ],
            "type" : "SCALAR"
        },
        {
            "bufferView" : 1,
            "componentType" : 5126,
            "count" : 261,
            "max" : [
                1.3874872922897339,
                0.7765474319458008,
                1.942010521888733
            ],
            "min" : [
                -1.370822548866272,
                -1.0067585654027766e-11,
                -2.3406121730804443
            ],
            "type" : "VEC3"
        },
        {
            "bufferView" : 2,
            "componentType" : 5126,
            "count" : 261,
            "max" : [
                1.0,
                1.0,
                1.0
            ],
            "min" : [
                -1.0,
                -1.0,
                -0.6115499138832092
            ],
            "type" : "VEC3"
        }
    ],
    "asset" : {
        "generator" : "Khronos Blender glTF 2.0 exporter",
        "version" : "2.0"
    },
    "bufferViews" : [
        {
            "buffer" : 0,
            "byteLength" : 960,
            "byteOffset" : 0,
            "target" : 34963
        },
        {
            "buffer" : 0,
            "byteLength" : 3132,
            "byteOffset" : 960,
            "target" : 34962
        },
        {
            "buffer" : 0,
            "byteLength" : 3132,
            "byteOffset" : 4092,
            "target" : 34962
        }
    ],
    "buffers" : [
        {
            "byteLength" : 7224,
            "uri" : "backward.bin"
        }
    ],
    "meshes" : [
        {
            "name" : "Plane",
            "primitives" : [
                {
                    "attributes" : {
                        "NORMAL" : 2,
                        "POSITION" : 1
                    },
                    "indices" : 0
                }
            ]
        }
    ],
    "nodes" : [
        {
            "name" : "Camera",
            "rotation" : [
                0.25964048504829407,
                0.7239049077033997,
                -0.35251376032829285,
                0.5331816077232361
            ],
            "translation" : [
                3.299912929534912,
                3.0568177700042725,
                -1.4223713874816895
            ]
        },
        {
            "name" : "Lamp",
            "rotation" : [
                0.16907575726509094,
                0.7558802962303162,
                -0.27217137813568115,
                0.570947527885437
            ],
            "scale" : [
                1.0,
                1.0,
                0.9999999403953552
            ],
            "translation" : [
                0.8444540500640869,
                2.479377031326294,
                -1.3074980974197388
            ]
        },
        {
            "mesh" : 0,
            "name" : "Plane",
            "rotation" : [
                0.0,
                1.0,
                -0.0,
                -4.371138828673793e-08
            ],
            "scale" : [
                0.605869472026825,
                0.605869472026825,
                0.605869472026825
            ]
        }
    ],
    "scene" : 0,
    "scenes" : [
        {
            "name" : "Scene",
            "nodes" : [
                2,
                1,
                0
            ]
        }
    ]
}
